<svg xmlns="http://www.w3.org/2000/svg" width="960" height="600" viewBox="0 0 960 600" fill="none">
  <rect width="960" height="600" fill="#06101f"/>
  <path d="M72 76h816v448H72z" fill="rgba(255,255,255,0.055)" stroke="rgba(255,255,255,0.14)" rx="8"/>
  <path d="M134 156h246M134 196h160" stroke="#fff" stroke-opacity=".82" stroke-width="15" stroke-linecap="round"/>
  <rect x="134" y="264" width="180" height="158" rx="8" fill="rgba(34,211,238,0.12)" stroke="rgba(103,232,249,0.28)"/>
  <rect x="396" y="140" width="200" height="282" rx="8" fill="rgba(37,99,235,0.16)" stroke="rgba(37,99,235,0.3)"/>
  <rect x="654" y="264" width="172" height="158" rx="8" fill="rgba(139,92,246,0.11)" stroke="rgba(139,92,246,0.28)"/>
  <path d="M228 340h168M596 282h58" stroke="#22d3ee" stroke-width="10" stroke-linecap="round"/>
  <path d="M496 282c44-114 78-112 114 0" stroke="#67e8f9" stroke-width="12" stroke-linecap="round"/>
  <path d="M696 370c28-64 54-66 80 0" stroke="#8b5cf6" stroke-width="10" stroke-linecap="round"/>
  <path d="M440 196h102M440 232h82M178 328h88M696 324h78" stroke="#fff" stroke-opacity=".6" stroke-width="10" stroke-linecap="round"/>
  <path d="M300 340h96M596 282h82" stroke="#fff" stroke-opacity=".34" stroke-width="4"/>
  <defs>
    <linearGradient id="a" x1="960" x2="0" y1="0" y2="600" gradientUnits="userSpaceOnUse">
      <stop stop-color="#8b5cf6" stop-opacity=".2"/>
      <stop offset=".52" stop-color="#06101f" stop-opacity="0"/>
      <stop offset="1" stop-color="#22d3ee" stop-opacity=".18"/>
    </linearGradient>
  </defs>
  <rect width="960" height="600" fill="url(#a)"/>
</svg>
